<svg width="32" height="33" viewBox="0 0 32 33" fill="none" xmlns="http://www.w3.org/2000/svg">
  <path fill-rule="evenodd" clip-rule="evenodd" d="M0 16.0498C0 7.21325 7.16345 0.0498047 16 0.0498047C24.8365 0.0498047 32 7.21325 32 16.0498C32 24.8863 24.8365 32.0498 16 32.0498C7.16345 32.0498 0 24.8863 0 16.0498Z" fill="url(#paint0_radial_1_621)" />
  <path fill-rule="evenodd" clip-rule="evenodd" d="M16.0003 7.5166C13.6827 7.5166 13.3918 7.52674 12.4816 7.56817C11.5731 7.60977 10.953 7.75359 10.4105 7.96462C9.84921 8.18257 9.37312 8.47413 8.89879 8.94862C8.42413 9.42294 8.13257 9.89903 7.91391 10.4601C7.70234 11.0029 7.55834 11.6231 7.51745 12.5312C7.47674 13.4415 7.46606 13.7325 7.46606 16.0501C7.46606 18.3676 7.47638 18.6575 7.51763 19.5678C7.5594 20.4761 7.70323 21.0964 7.91408 21.6389C8.13222 22.2001 8.42377 22.6763 8.89827 23.1506C9.37241 23.6252 9.84849 23.9174 10.4094 24.1355C10.9523 24.3465 11.5726 24.4902 12.4809 24.5318C13.3911 24.5733 13.6818 24.5835 15.9991 24.5835C18.3168 24.5835 18.6068 24.5733 19.5171 24.5318C20.4254 24.4902 21.0462 24.3465 21.5892 24.1355C22.1504 23.9174 22.6257 23.6252 23.0998 23.1506C23.5745 22.6763 23.866 22.2001 24.0848 21.639C24.2945 21.0964 24.4385 20.476 24.4811 19.5679C24.522 18.6577 24.5328 18.3676 24.5328 16.0501C24.5328 13.7325 24.522 13.4416 24.4811 12.5314C24.4385 11.623 24.2945 11.0029 24.0848 10.4603C23.866 9.89903 23.5745 9.42294 23.0998 8.94862C22.6251 8.47395 22.1505 8.18239 21.5886 7.96462C21.0446 7.75359 20.4243 7.60977 19.5158 7.56817C18.6055 7.52674 18.3158 7.5166 15.9975 7.5166H16.0003ZM15.2355 9.05473C15.4627 9.05436 15.7162 9.05473 16.001 9.05473C18.2794 9.05473 18.5495 9.0629 19.4491 9.10379C20.2811 9.14184 20.7328 9.28086 21.0336 9.39766C21.4318 9.55233 21.7158 9.73723 22.0142 10.0359C22.3129 10.3346 22.4977 10.619 22.6528 11.0172C22.7696 11.3177 22.9088 11.7692 22.9466 12.6013C22.9876 13.5008 22.9965 13.771 22.9965 16.0484C22.9965 18.3257 22.9876 18.596 22.9466 19.4955C22.9086 20.3275 22.7696 20.7791 22.6528 21.0796C22.4982 21.4777 22.3129 21.7614 22.0142 22.0598C21.7156 22.3585 21.432 22.5433 21.0336 22.6981C20.7331 22.8153 20.2811 22.9541 19.4491 22.9921C18.5497 23.0329 18.2794 23.042 16.001 23.042C13.7224 23.042 13.4523 23.0329 12.5528 22.9921C11.7208 22.9537 11.2692 22.8148 10.9682 22.698C10.57 22.5432 10.2856 22.3583 9.98689 22.0597C9.68822 21.7609 9.50333 21.4773 9.3483 21.0789C9.2315 20.7784 9.0923 20.3269 9.05444 19.4949C9.01356 18.5953 9.00537 18.325 9.00537 16.0463C9.00537 13.7675 9.01356 13.4987 9.05444 12.5991C9.09248 11.7671 9.2315 11.3156 9.3483 11.0147C9.50298 10.6165 9.68822 10.3321 9.98689 10.0334C10.2856 9.73473 10.57 9.54984 10.9682 9.39481C11.269 9.27749 11.7208 9.13881 12.5528 9.10059C13.34 9.06504 13.6451 9.05436 15.2355 9.05259V9.05473ZM20.5555 10.4716C19.9901 10.4716 19.5315 10.9297 19.5315 11.4952C19.5315 12.0606 19.9901 12.5192 20.5555 12.5192C21.1207 12.5192 21.5795 12.0606 21.5795 11.4952C21.5795 10.9299 21.1207 10.4716 20.5555 10.4716ZM16.0009 11.6678C13.5808 11.6678 11.6186 13.63 11.6186 16.0501C11.6186 18.4702 13.5808 20.4315 16.0009 20.4315C18.4211 20.4315 20.3825 18.4702 20.3825 16.0501C20.3825 13.63 18.4211 11.6678 16.0009 11.6678ZM16.0009 13.2056C17.5718 13.2056 18.8454 14.479 18.8454 16.0501C18.8454 17.6209 17.5718 18.8945 16.0009 18.8945C14.4298 18.8945 13.1564 17.6209 13.1564 16.0501C13.1564 14.479 14.4298 13.2056 16.0009 13.2056Z" fill="white" />
  <defs>
    <radialGradient id="paint0_radial_1_621" cx="0" cy="0" r="1" gradientUnits="userSpaceOnUse" gradientTransform="translate(4.77778 32.1609) scale(40.888)">
      <stop stop-color="#FFB140" />
      <stop offset="0.2559" stop-color="#FF5445" />
      <stop offset="0.599" stop-color="#FC2B82" />
      <stop offset="1" stop-color="#8E40B7" />
    </radialGradient>
  </defs>
</svg>